<?xml version="1.0" encoding="UTF-8" standalone="no"?>
<svg width="1000px" height="220px" viewBox="0 0 1000 220" version="1.1" xmlns="http://www.w3.org/2000/svg" xmlns:xlink="http://www.w3.org/1999/xlink" xmlns:sketch="http://www.bohemiancoding.com/sketch/ns">
    <!-- Generator: Sketch 3.1 (8751) - http://www.bohemiancoding.com/sketch -->
    <title>unwise</title>
    <desc>Created with Sketch.</desc>
    <defs></defs>
    <g id="Page-1" stroke="none" stroke-width="1" fill="none" fill-rule="evenodd" sketch:type="MSPage">
        <g id="logo" sketch:type="MSLayerGroup" fill="#505050">
            <path d="M978.419155,166.409459 C980.615228,163.103256 983.905909,161.450154 987.473671,161.450154 C994.056405,161.450154 998.994484,166.960492 998.995855,172.472208 C998.995855,191.758392 964.430675,214.901812 922.182666,214.901812 C893.913536,214.901812 870.703194,203.146883 856.790157,185.061953 C845.332442,203.341123 825.5184,212.146643 802.298456,212.146643 C788.034266,212.146643 782.82185,210.218025 778.97975,208.289407 C767.457566,212.42216 755.112369,214.901812 732.891014,214.901812 C717.35664,214.901812 707.491456,210.472878 703.576657,201.554396 C703.724799,201.006117 703.872942,200.459216 703.98542,199.895784 C704.326971,198.186201 704.501175,196.436669 704.501175,194.69678 C704.501175,184.724445 698.779862,175.586927 689.881718,171.213096 C705.775474,154.553966 720.519754,121.847354 720.547188,81.2774885 C720.547188,71.3588797 728.502982,63.3688893 738.377768,63.3688893 C746.333562,63.3688893 753.466342,68.8792275 755.386706,76.3181841 C762.520859,105.798494 811.077263,115.166068 811.077263,162.553599 C811.077263,173.023242 808.059548,181.839783 805.041833,185.972537 C822.323738,185.420125 842.624729,172.746348 842.624729,143.267416 C842.624729,92.8478211 873.349181,63.3675118 916.69454,63.3675118 C952.358444,63.3675118 974.305461,82.93059 974.305461,112.960556 C974.305461,135.276048 956.199172,161.725671 908.464409,161.725671 C898.862589,161.725671 890.085154,161.174637 883.501048,160.348087 C888.987803,176.879101 902.977655,185.971159 922.181295,185.971159 C950.986755,185.971159 970.463361,177.705652 978.419155,166.409459 C978.419155,166.409459 970.463361,177.705652 978.419155,166.409459 Z M916.69454,96.429541 C898.862589,96.429541 883.501048,108.276768 881.304975,135.828459 C886.244426,136.65501 893.92451,137.481561 902.977655,137.481561 C923.827321,137.481561 933.154803,125.634333 933.154803,112.960556 C933.154803,103.868498 925.747685,96.429541 916.69454,96.429541 Z M642.089345,46.8378747 C629.1941,46.8378747 618.770639,36.3682321 618.770639,23.4189374 C618.770639,10.4696426 629.195472,0 642.089345,0 C654.981846,0 665.40805,10.4696426 665.40805,23.4189374 C665.40805,36.3682321 654.981846,46.8378747 642.089345,46.8378747 L642.089345,46.8378747 L642.089345,46.8378747 Z M661.793651,214.802626 C660.803292,214.856352 659.814304,214.907323 658.818459,214.907323 C637.695826,214.907323 621.784238,197.549757 621.784238,176.334955 C621.784238,166.691863 623.155927,157.048772 623.155927,143.272926 C623.155927,140.16234 623.106546,136.828586 623.021502,133.39289 C617.152046,136.190764 610.595375,137.762588 603.675206,137.762588 C600.9332,137.762588 598.462789,137.487071 595.99375,137.211554 C586.667639,176.333578 548.534696,214.905945 518.631885,214.905945 C503.544683,214.905945 493.394187,206.640438 489.827797,187.354254 C489.004784,183.2215 487.907433,177.986679 487.907433,177.986679 C471.721507,199.476998 449.227186,214.905945 430.297884,214.905945 C415.20931,214.905945 405.060186,206.915955 401.492424,187.354254 C399.139978,174.523432 396.654478,164.10476 394.092164,154.987905 C382.794937,195.229905 359.164857,214.905945 327.422612,214.905945 C306.298608,214.905945 289.015332,197.54838 289.015332,176.333578 C289.015332,159.802563 291.758709,143.271548 291.758709,115.719857 C291.758709,106.352282 287.369305,97.8112583 273.926757,97.8112583 C256.917819,97.8112583 236.891165,107.178833 236.891165,135.006041 C236.891165,156.771877 238.262854,180.464954 238.262854,192.863215 C238.262854,203.608374 229.758385,212.149398 219.059214,212.149398 C209.313366,212.149398 201.411069,205.05346 200.076416,195.669354 C188.046707,208.535994 172.63167,214.904568 154.591222,214.904568 C137.856621,214.904568 125.237086,204.159408 120.573345,189.005978 C109.874174,202.781823 93.9639585,214.904568 73.6629675,214.904568 C31.9636345,214.904568 27.0255556,182.944606 27.0255556,170.821862 C27.0255556,159.801185 28.3972442,154.290847 28.3972442,143.270171 C28.3972442,119.851234 27.0255556,110.208142 27.0255556,98.3609145 L27.0255556,97.5343638 C27.0255556,95.8812623 26.2025425,93.952644 24.2821785,93.952644 C22.3618145,93.952644 21.2644636,94.2281609 19.0697619,96.98333 C15.7777093,101.391601 10.8396304,102.769185 5.90155146,100.56505 C0.96347256,97.8098807 -1.50556689,92.5750594 0.96347256,86.7892043 C7.82191548,71.3602573 19.6184373,63.3702669 34.432674,63.3702669 C61.3177702,63.3702669 68.1762131,81.2788661 68.1762131,101.667117 C68.1762131,115.717102 64.0611474,143.268793 64.0611474,162.554977 C64.0611474,171.922552 69.5479017,180.463576 80.5214104,180.463576 C99.999388,180.463576 113.441936,159.799808 118.928691,129.492948 C118.928691,106.07401 117.557002,101.941257 117.557002,86.7878267 C117.557002,75.4916334 126.884484,66.1240584 138.132331,66.1240584 C149.380177,66.1240584 158.70766,75.4916334 158.70766,86.7878267 C158.70766,119.848478 154.592594,140.512247 154.592594,173.574276 C154.592594,178.809097 158.981997,183.217368 164.194414,183.217368 C182.026366,183.217368 201.230006,159.79843 201.230006,92.2981649 L201.230006,84.0326576 C201.230006,74.1140488 209.185799,66.1240584 219.061957,66.1240584 C228.938115,66.1240584 236.893909,74.1140488 236.893909,84.0326576 C250.063491,69.7057783 268.168409,63.3688893 283.531321,63.3688893 C325.230654,63.3688893 330.168732,95.3288509 330.168732,107.451595 C330.168732,129.492948 327.425355,140.513624 327.425355,173.575653 C327.425355,178.810475 331.814759,183.218745 337.027175,183.218745 C354.822091,183.218745 373.979094,159.889351 374.058652,92.7100627 C371.577267,81.2706006 378.579738,69.8779763 389.698645,66.9519868 C401.495167,63.6457838 414.114702,70.5337066 416.583742,82.3809337 C424.813873,119.849856 425.635514,140.513624 438.805097,181.841161 C458.557412,173.575653 471.449913,144.646378 471.449913,129.492948 C471.449913,118.747788 467.883523,109.65573 462.122431,99.1860877 C456.088373,88.1654113 459.653391,75.2161165 470.078225,69.1547445 C480.504429,63.0933724 493.946978,66.6750923 499.981036,77.1447348 C514.522306,102.492291 509.308518,132.246739 528.512158,181.839783 C548.265845,173.574276 559.786658,144.645 559.786658,129.49157 C559.786658,117.093309 555.671592,108.001251 550.459176,99.1847101 C544.423746,88.7150675 547.990136,75.2147389 558.414969,69.1533669 C568.839803,63.0919948 582.282351,66.6737147 588.31778,77.1433573 C593.255859,85.9598984 596.82225,95.8785072 597.919601,111.031937 C600.38864,112.409522 603.406355,112.960556 606.422698,112.960556 C612.529456,112.960556 618.054617,110.1861 621.844593,105.853597 C621.139545,93.488398 620.416665,84.03128 620.416665,84.03128 C620.416665,72.7350867 629.744147,63.3675118 640.991994,63.3675118 C652.238468,63.3675118 661.565951,72.7350867 661.565951,84.03128 C661.565951,119.847101 658.822574,140.510869 658.822574,173.572898 C658.822574,174.703895 659.047531,175.788054 659.423373,176.804712 C659.12023,177.128444 658.823945,177.459064 658.537262,177.799328 C654.564852,182.517555 652.377009,188.516935 652.377009,194.695402 C652.377009,202.488398 655.91185,209.866741 661.793651,214.802626 Z M764.439851,176.328067 C767.183228,173.572898 768.554917,169.440145 768.554917,162.552222 C768.554917,145.664413 755.514273,136.1701 746.0071,122.228944 C742.045663,139.122264 735.749613,154.697235 727.712889,168.066693 C745.358291,168.119041 756.257729,172.492872 764.439851,176.328067 C764.439851,176.328067 756.257729,172.492872 764.439851,176.328067 L764.439851,176.328067 L764.439851,176.328067 Z M688.153391,173.305647 C696.180512,177.003084 701.757798,185.119812 701.757798,194.581063 C701.757798,196.174928 701.59731,197.731599 701.295539,199.235921 C699.150218,209.949396 689.744549,218 678.439092,218 C674.096326,218 670.047101,216.790481 666.568499,214.719971 C659.719658,210.643698 655.120386,203.167547 655.120386,194.581063 C655.120386,188.811739 657.198494,183.542478 660.633203,179.464827 C664.908756,174.388428 671.289851,171.162125 678.439092,171.162125 C681.912208,171.162125 685.194658,171.941838 688.153391,173.305647 C688.153391,173.305647 685.194658,171.941838 688.153391,173.305647 L688.153391,173.305647 L688.153391,173.305647 Z" id="unwise" sketch:type="MSShapeGroup"></path>
        </g>
    </g>
</svg>